<?xml version="1.0" standalone="no"?><!DOCTYPE svg PUBLIC "-//W3C//DTD SVG 1.1//EN" "http://www.w3.org/Graphics/SVG/1.1/DTD/svg11.dtd"><svg t="1722268985463" class="icon" viewBox="0 0 1024 1024" version="1.1" xmlns="http://www.w3.org/2000/svg" p-id="5295" xmlns:xlink="http://www.w3.org/1999/xlink" width="128" height="128"><path d="M536.021333 128c26.453333 0 47.957333 21.504 47.957334 48l5.802666 40.32a48 48 0 0 0 76.288 31.616l32.597334-24.448c18.773333-18.730667 49.152-18.730667 67.882666 0l33.962667 33.962667c18.730667 18.773333 18.730667 49.109333 0 67.84l-24.448 32.64a48 48 0 0 0 31.573333 76.288l40.362667 5.802666c26.496 0 48 21.461333 48 47.957334v48.042666c0 26.453333-21.504 47.957333-48 47.957334l-40.32 5.802666a48 48 0 0 0-31.616 76.288l24.448 32.597334c18.730667 18.773333 18.730667 49.152 0 67.882666l-33.962667 33.962667c-18.773333 18.773333-49.109333 18.773333-67.84 0l-32.64-24.448a48 48 0 0 0-76.288 31.573333l-5.802666 40.362667c0 26.496-21.461333 48-47.957334 48h-48.042666a48 48 0 0 1-47.957334-48l-5.802666-40.32a48 48 0 0 0-76.288-31.616l-32.597334 24.448c-18.773333 18.773333-49.152 18.773333-67.882666 0l-33.962667-33.962667a48 48 0 0 1 0-67.84l24.448-32.64a48 48 0 0 0-31.573333-76.288l-40.362667-5.802666A48 48 0 0 1 128 536.021333v-48.042666c0-26.453333 21.504-47.957333 48-47.957334l40.32-5.802666a48 48 0 0 0 31.616-76.288l-24.448-32.597334a48 48 0 0 1 0-67.882666l33.962667-33.962667c18.773333-18.730667 49.109333-18.730667 67.84 0l32.64 24.448a48 48 0 0 0 76.288-31.573333l5.76-40.362667c0-26.496 21.504-48 48.042666-48zM512 416a96 96 0 1 0 0 192 96 96 0 0 0 0-192z" fill="#858EBD" p-id="5296"></path></svg>