<?xml version="1.0" standalone="no"?><!DOCTYPE svg PUBLIC "-//W3C//DTD SVG 1.1//EN" "http://www.w3.org/Graphics/SVG/1.1/DTD/svg11.dtd"><svg t="1722250178049" class="icon" viewBox="0 0 1024 1024" version="1.1" xmlns="http://www.w3.org/2000/svg" p-id="20504" xmlns:xlink="http://www.w3.org/1999/xlink" width="200" height="200"><path d="M510.721917 2.044933C228.521218 2.044933 0 230.566151 0 512.255617S228.521218 1022.466301 510.721917 1022.466301s510.210684-228.521218 510.210684-510.210684S792.411383 2.044933 510.721917 2.044933z m0 937.090364c-235.678482 0-426.87968-191.201198-426.87968-426.87968s191.201198-426.87968 426.87968-426.879681 426.87968 191.201198 426.879681 426.879681-191.201198 426.87968-426.879681 426.87968z" fill="#82529d" p-id="20505"></path><path d="M487.205192 271.464803c0 33.230155 27.095357 60.325512 60.325512 60.325512 33.230155 0 60.325512-27.095357 60.325512-60.325512s-27.095357-60.325512-60.325512-60.325512c-33.230155 0.511233-60.325512 27.095357-60.325512 60.325512zM530.148777 825.130305c-44.477284 11.247129-105.825262 10.224663-136.499251-2.044933s-41.921118-57.258113-25.050425-99.690464l76.684973-190.689965c16.870694-42.432351-5.112332-86.909636-49.078383-99.179232l-14.314528-4.089865c-43.966051-12.269596-42.943585-28.117823 2.044933-35.78632l43.966051-7.157264c44.988517-7.157264 107.358962-3.067399 138.03295 9.202196s41.921118 57.258113 24.539192 99.690465l-71.572641 176.375436c-16.870694 42.432351 4.089865 87.932102 47.544683 100.712931s42.432351 32.718922-2.044933 43.966051l-34.252621 8.690964z" fill="#82529d" p-id="20506"></path></svg>