<?xml version="1.0" standalone="no"?><!DOCTYPE svg PUBLIC "-//W3C//DTD SVG 1.1//EN" "http://www.w3.org/Graphics/SVG/1.1/DTD/svg11.dtd"><svg t="1722245099829" class="icon" viewBox="0 0 1024 1024" version="1.1" xmlns="http://www.w3.org/2000/svg" p-id="6968" xmlns:xlink="http://www.w3.org/1999/xlink" width="200" height="200"><path d="M885.856 707.936l-79.728-40.272-257.856 130.24L512 816.272l-36.272-18.368-257.856-130.24-79.728 40.272c-13.52 6.848-13.52 26.4 0 33.344l365.6 184.72c5.184 2.672 11.328 2.672 16.496 0l365.6-184.72c13.536-6.944 13.536-26.496 0-33.344zM138.144 332l365.6 184.72c5.216 2.56 11.296 2.56 16.496 0l365.6-184.72c13.536-6.848 13.536-26.4 0-33.232L520.256 113.92a18.64 18.64 0 0 0-16.48 0L138.16 298.752c-13.536 6.832-13.536 26.4 0 33.232z" fill="#8a8a8a" p-id="6969"></path><path d="M863.392 495.696l-73.392-36.8-245.6 122.8-34.304 17.2-34.288-17.2-245.6-122.8L156.8 495.6c-13.008 6.496-13.008 25.008 0 31.392l345.392 172.704c4.912 2.512 10.8 2.512 15.712 0l345.392-172.704c13.104-6.4 13.104-24.896 0.096-31.296z" fill="#8a8a8a" p-id="6970"></path></svg>