<?xml version="1.0" standalone="no"?><!DOCTYPE svg PUBLIC "-//W3C//DTD SVG 1.1//EN" "http://www.w3.org/Graphics/SVG/1.1/DTD/svg11.dtd"><svg t="1722249806025" class="icon" viewBox="0 0 1024 1024" version="1.1" xmlns="http://www.w3.org/2000/svg" p-id="10089" xmlns:xlink="http://www.w3.org/1999/xlink" width="200" height="200"><path d="M401.664 198.4c12.842667 0 23.850667 4.394667 32.981333 13.312 9.130667 8.874667 13.653333 19.754667 13.653334 32.554667v185.088c0 12.842667-4.522667 23.850667-13.653334 32.981333-9.130667 9.130667-20.138667 13.653333-32.981333 13.653333H216.576c-12.8 0-23.68-4.522667-32.554667-13.653333A45.653333 45.653333 0 0 1 170.666667 429.354667V244.266667c0-12.8 4.437333-23.68 13.354666-32.554667 8.874667-8.874667 19.754667-13.354667 32.554667-13.354667h185.088z m0 370.133333c12.842667 0 23.850667 4.437333 32.981333 13.312 9.130667 8.917333 13.653333 19.754667 13.653334 32.597334v185.813333c0 12.842667-4.522667 23.722667-13.653334 32.597333a45.653333 45.653333 0 0 1-32.981333 13.312H216.576c-12.8 0-23.68-4.437333-32.554667-13.312A44.458667 44.458667 0 0 1 170.666667 800.256v-185.813333c0-12.842667 4.437333-23.68 13.354666-32.597334 8.874667-8.874667 19.754667-13.312 32.554667-13.312h185.088z m370.901333 0c12.842667 0 23.722667 4.437333 32.597334 13.312 8.874667 8.917333 13.312 19.754667 13.312 32.597334v185.813333c0 12.842667-4.437333 23.722667-13.312 32.597333a44.458667 44.458667 0 0 1-32.597334 13.312H587.52c-12.8 0-23.808-4.437333-32.938667-13.312a43.733333 43.733333 0 0 1-13.696-32.597333v-185.813333c0-12.842667 4.565333-23.68 13.653334-32.597334a45.653333 45.653333 0 0 1 32.981333-13.312h185.088z" fill="#8a8a8a" p-id="10090"></path><path d="M875.52 279.765333c9.813333 9.898667 14.762667 21.504 14.762667 34.816 0 13.354667-4.906667 24.704-14.805334 34.090667l-137.685333 137.685333c-9.898667 9.898667-21.333333 14.805333-34.432 14.805334-13.098667 0-24.576-4.906667-34.432-14.805334L531.2 348.672c-9.386667-9.386667-14.08-20.736-14.08-34.090667 0-13.312 4.693333-24.917333 14.08-34.816l137.728-137.685333c9.856-9.386667 21.333333-14.08 34.432-14.08 13.056 0 24.533333 4.693333 34.432 14.08l137.685333 137.685333z" fill="#8a8a8a" p-id="10091"></path></svg>